<svg id="dice-10-9" xmlns="http://www.w3.org/2000/svg" viewBox="0 0 482.78 504.96"><defs><style>.cls-1{fill:#881d2d;}.cls-2{fill:#601524;}.cls-3{font-size:110px;fill:#fff;font-family:IndustryInc-Base, Industry Inc;}</style></defs><title>dice-10-9</title><path class="cls-1" d="M260,298.88l113.18-52.62,16.33-7.54,99.05,25.46L261.41,496.46ZM27.69,265.51l94.37-27,16.78,7.77L252,298.88l-1.35,197.45Zm102-32L255.52,15.84,382.38,233.47,256,292.14Zm98-189.5-98,173.74-6.86,12.1L33.58,252.9ZM389.66,230.52l-7.3-12.8L282.56,41.83l200.35,210Z" transform="translate(-16.75 -4.89)"/><path class="cls-2" d="M255.54,26.8,374.59,231l-118.6,55L137.46,231,255.54,26.8m53.79,51.07,157,164.55L393.24,225.7,387.14,215,309.33,77.87M200.06,81.82,124.93,215l-5.7,10.06L50.41,242.87l149.65-161M121.6,244.33l14.93,6.91,109.94,51.14-1.23,180.44L38,268.28l83.59-23.95m268.42.21L478,267.14,266.81,483.06,265.5,302.38l110-51.14,14.54-6.7M255.5,4.89l-1.73,3L192,74.34l-149.65,161-25.6,27.55.64-.17L30.1,275.92,237.33,490.46,256,509.79v.06l0,0,0,0v-.05l18.62-19L485.82,274.83l13.31-13.61.39.09-25.26-26.48-157-164.56L256.42,6.46l-.92-1.57Z" transform="translate(-16.75 -4.89)"/><text class="cls-3" transform="translate(204.66 231.65)">9</text></svg>