<svg id="dice-12-3" xmlns="http://www.w3.org/2000/svg" viewBox="0 0 420.51 441.62"><defs><style>.cls-1{fill:#881d2d;}.cls-2{fill:#601524;}.cls-3{font-size:100.71px;fill:#fff;font-family:MyriadPro-Semibold, Myriad Pro;font-weight:700;}</style></defs><title>dice-12-3</title><path class="cls-1" d="M134,430.34l60-82.67H318.26l60,82.67L256.09,469.93ZM51,321.05V192.61l97.12,31.53,38.39,118.19-60,82.62Zm274.49,21.22,38.39-118.13L461,192.62V321l-75.48,103.9ZM195,338.59,157.2,222.31l98.89-71.87L355,222.31,317.22,338.59Zm65.67-196.07V40.45L382.77,80,458.26,184l-97.13,31.57ZM53.92,184,129.4,80,251.55,40.45V142.53L151,215.51Z" transform="translate(-45.83 -33.57)"/><path class="cls-2" d="M265.63,47.33l114.05,37,70.49,97.06L362,210l-96.38-70V47.33m-19.08,0V140l-96.38,70L62,181.35l70.48-97.06,114.06-37m9.54,109.29,93,67.6L313.59,333.59h-115L163.08,224.22l93-67.6M56,199.49l88.16,28.62L181,341.45l-54.49,75L56,319.43V199.49m400,0V319.37l-70.48,97-54.49-75,36.81-113.28L456,199.5M315.71,352.67l54.43,75-114,37L142,427.71l54.44-75H315.71M256.55,33.57l-.46.15-.46-.15v.3l-12.16,3.94-114.06,37-3.1,1-1.91,2.63L53.92,175.48l-7.54,10.38-.38-.13v.65l-.17.24.17,0v136l1.91,2.63,70.48,97L126,432.79l-.14.19.37.12.25.35.16-.22,12.31,4,114.06,37,3.08,1,3.08-1,114.06-37,12.19-4,.1.13.14-.21.66-.21-.25-.35,7.54-10.37,70.48-97,1.91-2.62V186.72l.35-.11-.35-.47v-.4l-.23.08-7.51-10.34L387.78,78.41l-1.92-2.63-3.09-1-114.06-37-12.16-3.94v-.3Z" transform="translate(-45.83 -33.57)"/><text class="cls-3" transform="translate(183.27 257.53)">3</text></svg>