<svg id="dice-8-1" xmlns="http://www.w3.org/2000/svg" viewBox="0 0 384 469.57"><defs><style>.cls-1{fill:#881d2d;}.cls-2{fill:#601524;}.cls-3{font-size:110px;fill:#fff;font-family:IndustryInc-Base, Industry Inc;}</style></defs><title>dice-8-1</title><path class="cls-1" d="M76.35,355.85h359.3L256,485.85Zm-5.4-8L256,29.18,441.05,347.85Zm198-312.35L444,162.19V337ZM68,162.19,243.08,35.5,68,337Z" transform="translate(-64 -21.21)"/><path class="cls-2" d="M256,37.14,434.1,343.85H77.9L256,37.14m25.84,12.65L440,164.23V322.14L281.84,49.79m-51.69,0L72,322.14V164.23L230.15,49.79M423.3,359.85,256,480.91,88.7,359.85H423.3M256,21.21h0l-30.54,22.1L67.31,157.75,64,160.15v191.7l14.92-25.69L237.07,53.81l7.17-12.35L71,339.84l-7,12h0l20,14.48,167.3,121.06,4.69,3.4,4.69-3.4L428,366.33l20-14.48h0l-7-12L415.4,295.72l17.68,30.44L448,351.85V160.15l-3.31-2.4L286.53,43.31,256,21.22Z" transform="translate(-64 -21.21)"/><text class="cls-3" transform="translate(169.4 248.32)">1</text></svg>