<svg id="dice-20-13" xmlns="http://www.w3.org/2000/svg" viewBox="0 0 424 497.92"><defs><style>.cls-1{fill:#881d2d;}.cls-2{fill:#601524;}.cls-3{font-size:100.71px;fill:#fff;font-family:MyriadPro-Semibold, Myriad Pro;font-weight:700;}</style></defs><title>dice-20-13</title><path class="cls-1" d="M134.06,364.55H377.94L256,497.65Zm254.57.17L456,370.93,279.6,483.74ZM56,370.93l67.39-6.21,109,119Zm336.6-13.88L464,163.6v200ZM48,163.6l71.42,193.45L48,363.63Zm83.95,193L256,144.52l124.05,212ZM263.06,140.76l199.24,4.33L386.2,351.23ZM49.69,145.09l199.24-4.33L125.8,351.23ZM260,132.69V13l193.83,124ZM252,13V132.69L58.17,136.91Z" transform="translate(-44 -5.66)"/><path class="cls-2" d="M264,20.27,439.67,132.6,264,128.77V20.27m-16,0v108.5L72.33,132.6,248,20.27m22.13,124.64L456.61,149,385.38,341.9l-115.25-197m-28.26,0-115.25,197L55.39,149l186.48-4.06M256,152.44,373.08,352.55H138.92L256,152.44M460,186V359.25l-61.86-5.71L460,186M52,186l61.86,167.56L52,359.25V186M368.85,368.55,256,491.73,143.15,368.55h225.7m21.39.33,53.8,5L303.19,463.9l87.05-95m-268.48,0,87.05,95-65.15-41.66L68,373.84l53.8-5M256,5.66l-12.31,7.87L68,125.86,44,141.22h0V368l8.73-.81,61.86-5.7,10.39-1H387l5.86-15.88L440.24,216.4l-49.6,134.37L387,360.55l10.39,1,61.86,5.7L468,368V141.21h0l-24-15.36L268.31,13.53,256,5.66ZM468,141.22,456.78,141,389.1,139.5l50.4,1.1,28.5.62Zm-424,0,28.5-.62,45.75-1-63,1.37L44,141.22Zm81,219.33-3.61-9.78L99.43,291.35l19.68,53.32L125,360.55Zm262,0H125l-4,.37-53.8,5L44,368l19.65,12.56,75.7,48.4,65.15,41.66L256,503.57h0l51.5-32.93,140.84-90.06L468,368l-23.23-2.14-53.8-5-4-.37Z" transform="translate(-44 -5.66)"/><text class="cls-3" transform="translate(159.02 320.06)">13</text></svg>